<svg viewBox="0 0 90 90" xmlns="http://www.w3.org/2000/svg"><g fill="none" fill-rule="evenodd"><path fill="#00C8C9" d="M0 0h90v90H0z"/><path d="M28.75 63a4.25 4.25 0 1 1 0 8.5 4.25 4.25 0 0 1 0-8.5Zm34.5 0a4.25 4.25 0 1 1 0 8.5 4.25 4.25 0 0 1 0-8.5Zm8.848-46a2 2 0 0 1 1.967 2.362l-6.263 34A2 2 0 0 1 65.835 55h-3.433a2 2 0 0 1-1.967-2.362l6.263-34A2 2 0 0 1 68.665 17h3.433Zm-14.52 12a2 2 0 0 1 1.965 2.378l-4.231 22A2 2 0 0 1 53.348 55h-3.427a2 2 0 0 1-1.964-2.378l4.231-22A2 2 0 0 1 54.152 29h3.427ZM43.14 40a2 2 0 0 1 1.973 2.329l-1.833 11A2 2 0 0 1 41.306 55H37.27a1.5 1.5 0 0 1-1.48-1.747l1.93-11.582A2 2 0 0 1 39.694 40h3.445ZM23.833 25a2 2 0 0 1 1.968 1.64l4.874 26.59A1.5 1.5 0 0 1 29.2 55h-3.006a2 2 0 0 1-1.973-1.671l-3.667-22.003H13.21a2 2 0 0 1-1.976-1.688l-.459-2.904A1.5 1.5 0 0 1 12.256 25h11.577Z" fill="#FFF"/></g></svg>